# Blender v2.78 (sub 0) OBJ File: 'cube.blend'
# www.blender.org
mtllib cube.mtl
o Cube
v 1.000000 -1.000000 -1.000000
v 1.000000 -1.000000 1.000000
v -1.000000 -1.000000 1.000000
v -1.000000 -1.000000 -1.000000
v 1.000000 1.000000 -0.999999
v 0.999999 1.000000 1.000001
v -1.000000 1.000000 1.000000
v -1.000000 1.000000 -1.000000
vt 0.6244 0.5006
vt 0.3756 0.7494
vt 0.3756 0.5006
vt 0.3756 0.0031
vt 0.6244 0.2519
vt 0.3756 0.2519
vt 0.8731 0.9981
vt 0.6244 0.7494
vt 0.8731 0.7494
vt 0.3756 0.9981
vt 0.1269 0.7494
vt 0.1269 0.9981
vt 0.6244 0.0031
vt 0.6244 0.9981
vn 0.0000 -1.0000 0.0000
vn 0.0000 1.0000 0.0000
vn 1.0000 -0.0000 0.0000
vn 0.0000 -0.0000 1.0000
vn -1.0000 -0.0000 -0.0000
vn 0.0000 0.0000 -1.0000
usemtl Material
s off
f 2/1/1 4/2/1 1/3/1
f 8/4/2 6/5/2 5/6/2
f 5/6/3 2/1/3 1/3/3
f 6/7/4 3/8/4 2/9/4
f 3/8/5 8/10/5 4/2/5
f 1/11/6 8/10/6 5/12/6
f 2/1/1 3/8/1 4/2/1
f 8/4/2 7/13/2 6/5/2
f 5/6/3 6/5/3 2/1/3
f 6/7/4 7/14/4 3/8/4
f 3/8/5 7/14/5 8/10/5
f 1/11/6 4/2/6 8/10/6
